<?xml version="1.0" standalone="no"?>
<!DOCTYPE svg PUBLIC "-//W3C//DTD SVG 20010904//EN"
 "http://www.w3.org/TR/2001/REC-SVG-20010904/DTD/svg10.dtd">
<svg version="1.0" xmlns="http://www.w3.org/2000/svg"
 width="720.000000pt" height="720.000000pt" viewBox="0 0 720.000000 720.000000"
 preserveAspectRatio="xMidYMid meet">
<metadata>
Created by potrace 1.11, written by Peter Selinger 2001-2013
</metadata>
<g transform="translate(0.000000,720.000000) scale(0.100000,-0.100000)"
fill="#000000" stroke="none">
<path d="M3518 6635 c-2 -2 -30 -6 -63 -9 -117 -12 -334 -57 -392 -81 -18 -8
-33 -12 -33 -10 0 9 -186 -62 -242 -91 -16 -9 -28 -12 -28 -7 0 4 -4 4 -8 -2
-4 -5 -43 -28 -87 -49 -44 -22 -96 -50 -115 -61 -19 -12 -39 -22 -44 -23 -5 0
-12 -4 -15 -9 -3 -5 -23 -19 -44 -32 -21 -13 -43 -28 -50 -34 -6 -7 -24 -18
-39 -26 -15 -8 -40 -26 -55 -41 -15 -15 -33 -29 -39 -31 -30 -11 -377 -339
-359 -339 3 0 -4 -11 -17 -23 -43 -44 -73 -82 -131 -162 -31 -44 -61 -85 -66
-91 -4 -5 -14 -21 -21 -35 -7 -13 -16 -26 -20 -29 -4 -3 -18 -25 -32 -50 -14
-25 -40 -70 -58 -100 -43 -72 -180 -359 -186 -390 0 -3 -4 -12 -7 -20 -40 -90
-144 -457 -161 -570 -9 -52 -27 -171 -31 -205 -21 -144 -28 -569 -12 -710 23
-202 26 -227 42 -305 2 -14 9 -50 15 -80 12 -60 15 -73 61 -240 18 -63 36
-119 40 -125 5 -5 9 -16 9 -25 0 -31 103 -274 175 -415 77 -150 152 -275 222
-367 24 -31 43 -61 43 -66 0 -6 3 -12 8 -14 4 -1 20 -19 35 -38 77 -95 120
-143 212 -235 127 -127 152 -148 279 -243 161 -120 167 -124 226 -154 14 -7
27 -15 30 -18 10 -11 227 -117 295 -144 125 -50 306 -105 403 -122 12 -2 34
-6 50 -9 15 -3 45 -8 67 -11 22 -3 51 -8 65 -11 14 -3 113 -6 220 -8 229 -4
350 8 550 56 47 11 92 22 100 24 37 8 186 58 195 65 6 4 21 11 34 15 13 4 40
14 60 23 20 9 38 16 41 17 3 0 16 7 29 14 13 7 67 36 120 63 53 27 98 54 99
59 2 5 10 9 17 9 8 0 20 6 27 13 17 16 107 77 113 77 3 0 13 7 23 16 9 8 35
29 57 45 144 109 342 307 463 465 51 65 96 124 101 130 4 5 14 21 21 35 7 13
16 26 19 29 9 8 61 89 61 96 0 3 10 20 22 36 63 89 238 472 263 578 2 8 18 57
35 109 16 51 30 101 30 110 0 9 5 22 12 29 7 7 9 12 6 12 -3 0 -2 17 3 38 31
129 61 310 76 457 15 153 8 592 -12 725 -2 14 -7 48 -11 75 -4 28 -8 55 -9 60
-1 6 -4 26 -8 45 -4 19 -9 46 -11 60 -2 14 -10 48 -16 75 -6 28 -14 60 -16 72
-2 12 -8 33 -13 45 -5 13 -9 26 -10 31 0 4 -1 8 -2 10 0 1 -2 9 -4 17 -1 8
-17 60 -34 115 -99 310 -267 638 -456 890 -152 203 -334 389 -522 533 -79 60
-295 202 -308 202 -4 0 -20 9 -36 21 -16 11 -29 17 -29 14 0 -3 -15 4 -32 17
-18 13 -35 22 -38 21 -3 -1 -23 7 -46 17 -173 79 -414 150 -594 175 -30 4 -66
10 -80 12 -29 5 -427 13 -432 8z"/>
</g>
</svg>
